<?xml version="1.0" encoding="UTF-8"?>
<svg version="1.1" xmlns="http://www.w3.org/2000/svg" width="10" height="10">
<path d="M0 0 C-0.14049518 1.47968324 -0.28754826 2.95874516 -0.4375 4.4375 C-0.51871094 5.26121094 -0.59992187 6.08492188 -0.68359375 6.93359375 C-1 9 -1 9 -2 10 C-4.67058851 10.14115161 -7.32432238 10.04247107 -10 10 C-10 7.36 -10 4.72 -10 2 C-6.5980513 -0.09350689 -3.94727588 -0.17942163 0 0 Z M-8 4 C-8 5.32 -8 6.64 -8 8 C-6.68 7.67 -5.36 7.34 -4 7 C-5.32 6.01 -6.64 5.02 -8 4 Z " fill="#000000" transform="translate(10,0)"/>
<path d="" fill="#000000" transform="translate(0,0)"/>
<path d="" fill="#000000" transform="translate(0,0)"/>
</svg>
